# xmcd
#
# Track frame offsets: 
#        150
#        12052
#        24618
#        44299
#        58252
#        70270
#        91773
#        102699
#        115649
#        130467
#        142980
#        153911
#        171841
#        187039
#        205737
#        219018
#        240303
#        253119
#
# Disc length: 3525 seconds
#
# Revision: 1
# Processed by: cddbd v1.5.2PL0 Copyright (c) Steve Scherf et al.
# Submitted via: ExactAudioCopy v1.3
#
DISCID=f40dc312
DTITLE=Townes Van Zandt - Poncho and Lefty
DYEAR=2004
DGENRE=Country
TTITLE0=Be Here to Love Me
TTITLE1=Kathleen
TTITLE2=Our Mother the Mountain
TTITLE3=St. John the Gambler
TTITLE4=Snake Mountain Blues
TTITLE5=For the Sake of the Song
TTITLE6=Waiting Around to Die
TTITLE7=Don't Take it Too Bad
TTITLE8=Colorado Girl
TTITLE9=I'll Be Here in the Morning
TTITLE10=None But the Rain
TTITLE11=Delta Momma Blues
TTITLE12=Turnstyled, Junkpiled
TTITLE13=Tower Song
TTITLE14=Come Tomorrow
TTITLE15=Brand New Companion
TTITLE16=Where I Lead Me
TTITLE17=Two Hands
EXTD=
EXTT0=
EXTT1=
EXTT2=
EXTT3=
EXTT4=
EXTT5=
EXTT6=
EXTT7=
EXTT8=
EXTT9=
EXTT10=
EXTT11=
EXTT12=
EXTT13=
EXTT14=
EXTT15=
EXTT16=
EXTT17=
PLAYORDER=
